<?xml version="1.0" encoding="UTF-8"?>
<!DOCTYPE svg PUBLIC "-//W3C//DTD SVG 1.1//EN" "http://www.w3.org/Graphics/SVG/1.1/DTD/svg11.dtd">
<svg version="1.0" xmlns="http://www.w3.org/2000/svg"
 width="100.000000pt" height="100.000000pt" viewBox="0 0 100.000000 100.000000"
 preserveAspectRatio="xMidYMid meet">
    <g transform="translate(0.000000,100.000000) scale(0.100000,-0.100000)"
    fill="#ffffff" stroke="none">
        <path d="M355 943 c-122 -44 -223 -135 -278 -250 -31 -65 -32 -73 -32 -194 0
        -124 0 -126 37 -200 47 -95 130 -177 225 -222 65 -31 73 -32 193 -32 120 0
        128 1 193 32 95 45 178 127 225 222 37 74 37 76 37 200 0 121 -1 129 -32 194
        -45 95 -127 178 -222 225 -71 35 -81 37 -185 40 -86 2 -122 -2 -161 -15z m318
        -68 c88 -43 151 -104 194 -193 37 -73 38 -80 38 -182 0 -102 -1 -109 -37 -182
        -45 -91 -103 -147 -196 -191 -62 -30 -75 -32 -172 -32 -97 0 -110 2 -172 32
        -93 44 -151 100 -196 191 -33 67 -37 86 -41 164 -2 73 1 100 20 153 41 117
        131 209 247 253 48 18 73 21 157 19 85 -3 108 -8 158 -32z"/>
        <path d="M428 734 c-30 -16 -58 -61 -58 -94 0 -16 6 -20 35 -20 24 0 35 5 35
        15 0 23 37 55 63 55 26 0 67 -38 67 -62 0 -9 -22 -50 -50 -91 -40 -60 -50 -83
        -50 -116 0 -40 1 -41 35 -41 32 0 35 2 35 31 0 20 15 52 46 95 72 101 70 190
        -6 229 -37 19 -117 19 -152 -1z"/>
    </g>
    <circle stroke-width="0" fill="#ffffff" cx="51" cy="72" r="5"/>

</svg>
